#N canvas 0 0 450 300 10;
#X obj 113 121 bng 30 250 50 0 empty empty Mélanger!!! 35 15 0 10
-203904 -4034 -83269;
#X obj 138 76 loadbang;
#X obj 34 88 r nb_pieces;
#X obj 34 110 + 1;
#X obj 66 219 gate 2;
#X obj 58 255 outlet;
#X obj 117 252 outlet;
#X connect 0 0 4 1;
#X connect 1 0 0 0;
#X connect 2 0 3 0;
#X connect 2 0 0 0;
#X connect 3 0 4 0;
#X connect 4 0 5 0;
#X connect 4 1 6 0;
#X coords 0 -1 1 1 110 60 1 100 100;
