#N canvas 315 87 807 553 10;
#N canvas 878 350 707 487 choix_video 0;
#X obj -20 -44 pix_film;
#X obj -20 -117 gemhead 25;
#X obj 2 -18 unpack 0 0 0;
#X floatatom 36 46 5 0 0 3 width - -;
#X obj 75 -103 openpanel;
#X msg 75 -83 open \$1;
#X msg -94 -70 auto \$1;
#X obj -94 -88 tgl 15 1 empty empty empty 0 -6 0 8 -262144 -1 -1 1
1;
#X msg 44 -44 1;
#X obj -94 -117 r playpause;
#X text 165 142 calcule la taille des \; pieces du puzzle;
#X obj 111 58 s Y_carres;
#X obj 36 236 s X_carres;
#X obj 111 35 / 3;
#X msg 75 -201 symbol C:/Users/BattleInteractive/Documents/Battle_Int_Lorient/Jeux/VIDEOS_PUZZLE
;
#X obj 76 -223 inlet;
#X obj -20 225 outlet;
#X obj 36 210 / 3;
#X obj 51 98 r nb_pieces;
#X msg 81 141 2;
#X obj 51 119 sel 0 1;
#X msg 51 141 3;
#X obj 1 33 print;
#X obj 51 171 t b f;
#X connect 0 0 16 0;
#X connect 0 1 2 0;
#X connect 0 2 8 0;
#X connect 1 0 0 0;
#X connect 2 1 3 0;
#X connect 2 1 22 0;
#X connect 2 2 13 0;
#X connect 3 0 17 0;
#X connect 4 0 5 0;
#X connect 5 0 0 0;
#X connect 6 0 0 0;
#X connect 7 0 6 0;
#X connect 8 0 0 1;
#X connect 9 0 7 0;
#X connect 13 0 11 0;
#X connect 14 0 4 0;
#X connect 15 0 14 0;
#X connect 17 0 12 0;
#X connect 18 0 20 0;
#X connect 19 0 23 0;
#X connect 20 0 21 0;
#X connect 20 1 19 0;
#X connect 21 0 23 0;
#X connect 23 0 17 0;
#X connect 23 1 17 1;
#X restore 16 121 pd choix_video;
#X obj 16 100 inlet;
#X obj 348 100 inlet;
#X obj 348 134 sfruit/list-shuffle;
#X obj 348 164 unpack 0 0 0 0 0 0 0 0 0;
#X text 33 204 croppe la video \, l'envoie dans une tuile;
#X text 474 131 mélange les pièces;
#X text 510 163 chaque tuile recoit une id \, et une vidéo \; calcule
sa position et sa présence \; s'affiche;
#X obj 321 296 tuile;
#X obj 462 456 tuile;
#X obj 356 336 tuile;
#X obj 338 316 tuile;
#X obj 373 356 tuile;
#X obj 391 376 tuile;
#X obj 409 396 tuile;
#X obj 426 416 tuile;
#X obj 444 436 tuile;
#N canvas 168 53 1037 534 cropping_9 0;
#X obj 37 381 pix_crop;
#X obj 48 279 r X_carres;
#X obj 59 300 r Y_carres;
#X obj 156 381 pix_crop;
#X obj 167 279 r X_carres;
#X obj 178 300 r Y_carres;
#X obj 666 381 pix_crop;
#X obj 677 279 r X_carres;
#X obj 688 300 r Y_carres;
#X obj 248 381 pix_crop;
#X obj 259 279 r X_carres;
#X obj 270 300 r Y_carres;
#X obj 345 381 pix_crop;
#X obj 356 279 r X_carres;
#X obj 367 300 r Y_carres;
#X obj 772 381 pix_crop;
#X obj 783 300 r X_carres;
#X obj 793 279 r Y_carres;
#X obj 699 330 * 2;
#X obj 805 330 * 2;
#X obj 37 249 separator;
#X obj 156 249 separator;
#X obj 666 249 separator;
#X obj 248 249 separator;
#X obj 344 249 separator;
#X obj 772 249 separator;
#X obj 196 61 inlet;
#X obj 449 381 pix_crop;
#X obj 460 279 r X_carres;
#X obj 471 300 r Y_carres;
#X obj 549 381 pix_crop;
#X obj 560 279 r X_carres;
#X obj 571 300 r Y_carres;
#X obj 860 381 pix_crop;
#X obj 871 279 r X_carres;
#X obj 882 300 r Y_carres;
#X obj 892 330 * 2;
#X obj 905 358 * 2;
#X obj 594 330 * 2;
#X obj 494 330 * 2;
#X obj 449 249 separator;
#X obj 549 249 separator;
#X obj 860 249 separator;
#X obj 37 411 outlet;
#X obj 156 411 outlet;
#X obj 666 411 outlet;
#X obj 248 411 outlet;
#X obj 345 411 outlet;
#X obj 772 411 outlet;
#X obj 449 411 outlet;
#X obj 549 411 outlet;
#X obj 860 411 outlet;
#X text 41 438 x.. \; ... \; ...;
#X text 171 438 .x. \; ... \; ...;
#X text 256 438 ... \; x.. \; ...;
#X text 349 438 ... \; .x. \; ...;
#X text 450 438 ... \; ... \; x..;
#X text 545 438 ... \; ... \; .x..;
#X text 778 438 ... \; ..x \; ...;
#X text 677 438 ..x \; ... \; ...;
#X text 861 438 ... \; ... \; ..x;
#X connect 0 0 43 0;
#X connect 1 0 0 1;
#X connect 2 0 0 2;
#X connect 3 0 44 0;
#X connect 4 0 3 1;
#X connect 4 0 3 3;
#X connect 5 0 3 2;
#X connect 6 0 45 0;
#X connect 7 0 6 1;
#X connect 7 0 18 0;
#X connect 8 0 6 2;
#X connect 9 0 46 0;
#X connect 10 0 9 1;
#X connect 11 0 9 2;
#X connect 11 0 9 4;
#X connect 12 0 47 0;
#X connect 13 0 12 1;
#X connect 13 0 12 3;
#X connect 14 0 12 2;
#X connect 14 0 12 4;
#X connect 15 0 48 0;
#X connect 16 0 15 1;
#X connect 16 0 19 0;
#X connect 17 0 15 2;
#X connect 17 0 15 4;
#X connect 18 0 6 3;
#X connect 19 0 15 3;
#X connect 20 0 0 0;
#X connect 21 0 3 0;
#X connect 22 0 6 0;
#X connect 23 0 9 0;
#X connect 24 0 12 0;
#X connect 25 0 15 0;
#X connect 26 0 20 0;
#X connect 26 0 21 0;
#X connect 26 0 22 0;
#X connect 26 0 23 0;
#X connect 26 0 24 0;
#X connect 26 0 25 0;
#X connect 26 0 40 0;
#X connect 26 0 41 0;
#X connect 26 0 42 0;
#X connect 27 0 49 0;
#X connect 28 0 27 1;
#X connect 29 0 27 2;
#X connect 29 0 39 0;
#X connect 30 0 50 0;
#X connect 31 0 30 1;
#X connect 31 0 30 3;
#X connect 32 0 30 2;
#X connect 32 0 38 0;
#X connect 33 0 51 0;
#X connect 34 0 33 1;
#X connect 34 0 36 0;
#X connect 35 0 33 2;
#X connect 35 0 37 0;
#X connect 36 0 33 3;
#X connect 37 0 33 4;
#X connect 38 0 30 4;
#X connect 39 0 27 4;
#X connect 40 0 27 0;
#X connect 41 0 30 0;
#X connect 42 0 33 0;
#X restore 16 224 pd cropping_9 ---------------;
#X connect 0 0 17 0;
#X connect 1 0 0 0;
#X connect 2 0 3 0;
#X connect 3 0 4 0;
#X connect 4 0 8 1;
#X connect 4 1 11 1;
#X connect 4 2 10 1;
#X connect 4 3 12 1;
#X connect 4 4 13 1;
#X connect 4 5 14 1;
#X connect 4 6 15 1;
#X connect 4 7 16 1;
#X connect 4 8 9 1;
#X connect 17 0 8 0;
#X connect 17 1 11 0;
#X connect 17 2 10 0;
#X connect 17 3 12 0;
#X connect 17 4 13 0;
#X connect 17 5 14 0;
#X connect 17 6 15 0;
#X connect 17 7 16 0;
#X connect 17 8 9 0;
