#N canvas 72 74 807 553 10;
#N canvas 456 132 707 487 choix_video 0;
#X obj -20 -44 pix_film;
#X obj -20 -117 gemhead 25;
#X obj 77 23 cnv 15 190 165 empty empty empty 20 12 0 14 -262130 -66577
0;
#X obj 95 42 unpack 0 0 0;
#X floatatom 129 92 5 0 0 3 width - -;
#X floatatom 164 65 5 0 0 3 height - -;
#X obj 75 -103 openpanel;
#X msg 75 -83 open \$1;
#X msg -94 -70 auto \$1;
#X obj -94 -88 tgl 15 1 empty empty empty 0 -6 0 8 -262144 -1 -1 1
1;
#X msg 44 -44 1;
#X obj -94 -117 r playpause;
#X text 214 75 calcule la taille des \; pieces du puzzle;
#X obj 164 123 s Y_carres;
#X obj 129 152 s X_carres;
#X obj 164 97 / 3;
#X msg 75 -201 symbol C:/Users/BattleInteractive/Documents/Battle_Int_Lorient/Jeux/VIDEOS_PUZZLE
;
#X obj 76 -223 inlet;
#X obj -1 210 outlet;
#X obj 129 126 / 3;
#X connect 0 0 18 0;
#X connect 0 1 3 0;
#X connect 0 2 10 0;
#X connect 1 0 0 0;
#X connect 3 1 4 0;
#X connect 3 2 5 0;
#X connect 4 0 19 0;
#X connect 5 0 15 0;
#X connect 6 0 7 0;
#X connect 7 0 0 0;
#X connect 8 0 0 0;
#X connect 9 0 8 0;
#X connect 10 0 0 1;
#X connect 11 0 9 0;
#X connect 15 0 13 0;
#X connect 16 0 6 0;
#X connect 17 0 16 0;
#X connect 19 0 14 0;
#X restore 16 121 pd choix_video;
#X obj 16 100 inlet;
#X obj 348 100 inlet;
#X obj 348 134 sfruit/list-shuffle;
#X obj 348 164 unpack 0 0 0 0 0 0 0 0 0;
#N canvas 342 102 1037 534 cropping 0;
#X obj 37 372 pix_crop;
#X obj 48 329 r X_carres;
#X obj 59 350 r Y_carres;
#X obj 156 375 pix_crop;
#X obj 167 353 r X_carres;
#X obj 178 332 r Y_carres;
#X obj 254 397 pix_crop;
#X obj 265 335 r X_carres;
#X obj 276 356 r Y_carres;
#X obj 356 380 pix_crop;
#X obj 367 336 r X_carres;
#X obj 378 357 r Y_carres;
#X obj 453 384 pix_crop;
#X obj 464 342 r X_carres;
#X obj 475 362 r Y_carres;
#X obj 558 409 pix_crop;
#X obj 569 366 r X_carres;
#X obj 579 344 r Y_carres;
#X obj 287 376 * 2;
#X obj 591 387 * 2;
#X obj 37 309 separator;
#X obj 156 313 separator;
#X obj 254 314 separator;
#X obj 356 315 separator;
#X obj 452 322 separator;
#X obj 558 323 separator;
#X obj 196 61 inlet;
#X obj 668 401 pix_crop;
#X obj 679 340 r X_carres;
#X obj 690 360 r Y_carres;
#X obj 762 407 pix_crop;
#X obj 773 342 r X_carres;
#X obj 784 363 r Y_carres;
#X obj 860 433 pix_crop;
#X obj 871 343 r X_carres;
#X obj 882 386 r Y_carres;
#X obj 892 364 * 2;
#X obj 905 408 * 2;
#X obj 807 384 * 2;
#X obj 713 380 * 2;
#X obj 668 319 separator;
#X obj 762 321 separator;
#X obj 860 323 separator;
#X obj 37 421 outlet;
#X obj 156 425 outlet;
#X obj 254 424 outlet;
#X obj 356 425 outlet;
#X obj 453 428 outlet;
#X obj 558 437 outlet;
#X obj 668 429 outlet;
#X obj 762 434 outlet;
#X obj 860 461 outlet;
#X connect 0 0 43 0;
#X connect 1 0 0 1;
#X connect 2 0 0 2;
#X connect 3 0 44 0;
#X connect 4 0 3 1;
#X connect 4 0 3 3;
#X connect 5 0 3 2;
#X connect 6 0 45 0;
#X connect 7 0 6 1;
#X connect 7 0 18 0;
#X connect 8 0 6 2;
#X connect 9 0 46 0;
#X connect 10 0 9 1;
#X connect 11 0 9 2;
#X connect 11 0 9 4;
#X connect 12 0 47 0;
#X connect 13 0 12 1;
#X connect 13 0 12 3;
#X connect 14 0 12 2;
#X connect 14 0 12 4;
#X connect 15 0 48 0;
#X connect 16 0 15 1;
#X connect 16 0 19 0;
#X connect 17 0 15 2;
#X connect 17 0 15 4;
#X connect 18 0 6 3;
#X connect 19 0 15 3;
#X connect 20 0 0 0;
#X connect 21 0 3 0;
#X connect 22 0 6 0;
#X connect 23 0 9 0;
#X connect 24 0 12 0;
#X connect 25 0 15 0;
#X connect 26 0 20 0;
#X connect 26 0 21 0;
#X connect 26 0 22 0;
#X connect 26 0 23 0;
#X connect 26 0 24 0;
#X connect 26 0 25 0;
#X connect 26 0 40 0;
#X connect 26 0 41 0;
#X connect 26 0 42 0;
#X connect 27 0 49 0;
#X connect 28 0 27 1;
#X connect 29 0 27 2;
#X connect 29 0 39 0;
#X connect 30 0 50 0;
#X connect 31 0 30 1;
#X connect 31 0 30 3;
#X connect 32 0 30 2;
#X connect 32 0 38 0;
#X connect 33 0 51 0;
#X connect 34 0 33 1;
#X connect 34 0 36 0;
#X connect 35 0 33 2;
#X connect 35 0 37 0;
#X connect 36 0 33 3;
#X connect 37 0 33 4;
#X connect 38 0 30 4;
#X connect 39 0 27 4;
#X connect 40 0 27 0;
#X connect 41 0 30 0;
#X connect 42 0 33 0;
#X restore 16 224 pd cropping ---------------;
#X text 33 204 croppe la video \, l'envoie dans une tuile;
#X text 474 131 mélange les pièces;
#X text 510 163 chaque tuile recoit une id \, et une vidéo \; calcule
sa position et sa présence \; s'affiche;
#X obj 321 296 tuile;
#X obj 462 456 tuile;
#X obj 356 336 tuile;
#X obj 338 316 tuile;
#X obj 373 356 tuile;
#X obj 391 376 tuile;
#X obj 409 396 tuile;
#X obj 426 416 tuile;
#X obj 444 436 tuile;
#X connect 0 0 5 0;
#X connect 1 0 0 0;
#X connect 2 0 3 0;
#X connect 3 0 4 0;
#X connect 4 0 9 1;
#X connect 4 1 12 1;
#X connect 4 2 11 1;
#X connect 4 3 13 1;
#X connect 4 4 14 1;
#X connect 4 5 15 1;
#X connect 4 6 16 1;
#X connect 4 7 17 1;
#X connect 4 8 10 1;
#X connect 5 0 10 0;
#X connect 5 1 17 0;
#X connect 5 2 16 0;
#X connect 5 3 15 0;
#X connect 5 4 14 0;
#X connect 5 5 13 0;
#X connect 5 6 11 0;
#X connect 5 7 12 0;
#X connect 5 8 9 0;
