#N canvas 1061 51 691 796 10;
#X obj 162 30 inlet id;
#X obj 225 30 r detection;
#X obj 152 262 route;
#N canvas 566 71 597 544 presence 0;
#X obj 177 219 sel;
#X msg 169 275 1;
#X msg 198 303 0;
#X obj 203 276 del 300;
#X obj 177 88 unpack 0 0 0 0;
#X obj 119 53 inlet id;
#X obj 177 53 inlet detection;
#X floatatom 96 121 5 0 0 0 - - -;
#X obj 198 437 spigot;
#X obj 231 415 invert;
#X obj 226 350 r forcer_presence;
#X msg 285 420 1;
#X obj 325 403 loadbang;
#X obj 198 409 tgl 15 0 empty empty empty 17 7 0 10 -262144 -1 -1 0
1;
#X obj 198 489 outlet;
#X obj 226 376 t f f;
#X connect 0 0 1 0;
#X connect 0 0 3 0;
#X connect 1 0 13 0;
#X connect 2 0 13 0;
#X connect 3 0 2 0;
#X connect 4 0 0 0;
#X connect 5 0 0 1;
#X connect 5 0 7 0;
#X connect 6 0 4 0;
#X connect 8 0 14 0;
#X connect 9 0 8 1;
#X connect 10 0 15 0;
#X connect 11 0 8 1;
#X connect 12 0 11 0;
#X connect 13 0 8 0;
#X connect 15 0 14 0;
#X connect 15 1 9 0;
#X restore 162 78 pd presence;
#X obj 162 114 tgl 15 0 empty empty empty 17 7 0 10 -262144 -1 -1 0
1;
#X obj 129 439 translateXYZ;
#X obj 129 658 rectangle;
#X obj 154 486 r zoom;
#X obj 154 508 / 100;
#X obj 152 323 unpack 0 0 0;
#X obj 129 464 rotateXYZ;
#X obj 129 195 pix_texture;
#X obj 129 159 spigot;
#X obj 129 8 inlet film;
#X obj 287 368 r rota;
#X obj 281 436 spigot;
#X msg 240 438 0;
#X obj 306 317 r mobil;
#X text 338 370 bloque la rotation et la met a 0;
#X obj 152 382 spigot;
#X obj 186 349 spigot;
#N canvas 1427 376 450 300 calculs 0;
#X obj 122 43 unpack 0 0 0;
#X obj 122 326 pack 0 0 0;
#X obj 122 357 outlet;
#X obj 123 14 inlet;
#X obj 192 217 * -57.32;
#X obj 122 164 maxlib/scale 0 1 -7.11 7.11;
#X obj 150 193 maxlib/scale 0 1 -4 4;
#X obj 192 272 + 90;
#X connect 0 0 5 0;
#X connect 0 1 6 0;
#X connect 0 2 4 0;
#X connect 1 0 2 0;
#X connect 3 0 0 0;
#X connect 4 0 7 0;
#X connect 5 0 1 0;
#X connect 6 0 1 1;
#X connect 7 0 1 2;
#X restore 152 291 pd calculs;
#X text 360 315 fige les pieces à leur position;
#X obj 287 398 t b f;
#X obj 154 632 * 3;
#X obj 180 633 * 3;
#X obj 206 501 r nb_pieces;
#X obj 206 523 sel 0 1;
#X msg 206 546 3;
#X obj 206 574 t b f;
#X msg 237 546 4.5;
#X connect 0 0 2 1;
#X connect 0 0 3 0;
#X connect 1 0 2 0;
#X connect 1 0 3 1;
#X connect 2 0 21 0;
#X connect 3 0 4 0;
#X connect 4 0 12 1;
#X connect 5 0 10 0;
#X connect 7 0 8 0;
#X connect 8 0 24 0;
#X connect 8 0 25 0;
#X connect 9 0 19 0;
#X connect 9 1 20 0;
#X connect 9 2 15 0;
#X connect 10 0 6 0;
#X connect 11 0 5 0;
#X connect 12 0 11 0;
#X connect 13 0 12 0;
#X connect 14 0 23 0;
#X connect 15 0 10 3;
#X connect 16 0 10 3;
#X connect 17 0 19 1;
#X connect 17 0 20 1;
#X connect 19 0 5 1;
#X connect 20 0 5 2;
#X connect 21 0 9 0;
#X connect 23 0 16 0;
#X connect 23 1 15 1;
#X connect 24 0 6 1;
#X connect 25 0 6 2;
#X connect 26 0 27 0;
#X connect 27 0 28 0;
#X connect 27 1 30 0;
#X connect 28 0 29 0;
#X connect 29 0 24 0;
#X connect 29 1 24 1;
#X connect 30 0 29 0;
